<?xml version="1.0" encoding="utf-8"?>
<!-- Generator: Adobe Illustrator 15.1.0, SVG Export Plug-In . SVG Version: 6.00 Build 0)  -->
<!DOCTYPE svg PUBLIC "-//W3C//DTD SVG 1.1//EN" "http://www.w3.org/Graphics/SVG/1.1/DTD/svg11.dtd">
<svg version="1.1" id="Capa_1" xmlns="http://www.w3.org/2000/svg" xmlns:xlink="http://www.w3.org/1999/xlink" x="0px" y="0px"
	 width="100px" height="105px" viewBox="0 0 100 105" enable-background="new 0 0 100 105" xml:space="preserve">
<path fill="#EB5C63" d="M93.384,69.968c-0.801-1.801-1.603-3.504-2.302-5.105l-0.101-0.1c-6.907-15.016-14.313-30.23-22.122-45.244
	l-0.3-0.602c-0.801-1.502-1.602-3.105-2.402-4.705c-1.001-1.803-2.002-3.703-3.604-5.506c-3.203-4.004-7.808-6.207-12.712-6.207
	c-5.005,0-9.509,2.203-12.813,6.006c-1.501,1.801-2.603,3.703-3.604,5.506c-0.801,1.604-1.603,3.203-2.402,4.705l-0.3,0.602
	C23.015,34.331,15.508,49.546,8.601,64.563l-0.1,0.197c-0.701,1.604-1.502,3.305-2.304,5.105c-0.5,1.102-1.001,2.303-1.501,3.604
	c-1.301,3.703-1.701,7.207-1.2,10.813c1.101,7.508,6.105,13.813,13.013,16.617c2.603,1.102,5.305,1.602,8.107,1.602
	c0.802,0,1.803-0.1,2.604-0.201c3.303-0.4,6.707-1.5,10.01-3.402c4.104-2.303,8.008-5.605,12.413-10.41
	c4.404,4.805,8.408,8.107,12.412,10.41c3.304,1.902,6.707,3.002,10.01,3.402c0.801,0.102,1.802,0.201,2.604,0.201
	c2.803,0,5.604-0.5,8.107-1.602c7.007-2.805,11.912-9.209,13.014-16.617c0.797-3.504,0.396-7.006-0.904-10.711
	C94.385,72.37,93.884,71.069,93.384,69.968z M49.739,78.776c-5.404-6.807-8.908-13.213-10.109-18.617
	c-0.5-2.303-0.602-4.305-0.3-6.107c0.199-1.602,0.801-3.004,1.602-4.205c1.902-2.701,5.105-4.404,8.809-4.404
	c3.704,0,7.008,1.602,8.81,4.404c0.801,1.201,1.401,2.604,1.602,4.205c0.301,1.805,0.2,3.904-0.3,6.107
	C58.647,65.464,55.145,71.87,49.739,78.776z M89.679,83.481c-0.701,5.205-4.204,9.711-9.109,11.713c-2.401,1-5.005,1.301-7.606,1
	c-2.502-0.301-5.005-1.102-7.607-2.602c-3.604-2.004-7.208-5.105-11.412-9.711c6.606-8.107,10.61-15.516,12.112-22.121
	c0.701-3.104,0.801-5.906,0.5-8.51c-0.4-2.502-1.301-4.805-2.703-6.807c-3.104-4.504-8.309-7.107-14.114-7.107
	c-5.805,0-11.011,2.703-14.113,7.107c-1.401,2.002-2.303,4.305-2.703,6.807c-0.4,2.604-0.3,5.506,0.5,8.51
	c1.501,6.605,5.604,14.113,12.111,22.221c-4.104,4.605-7.808,7.709-11.411,9.711c-2.604,1.502-5.105,2.303-7.607,2.602
	c-2.703,0.301-5.306-0.1-7.608-1c-4.904-2.002-8.407-6.508-9.108-11.713c-0.3-2.502-0.101-5.004,0.9-7.807
	c0.301-1.002,0.802-2.002,1.302-3.203c0.701-1.602,1.501-3.305,2.302-5.006l0.1-0.199c6.907-14.916,14.314-30.131,22.022-44.945
	l0.3-0.602c0.801-1.5,1.603-3.102,2.403-4.604c0.801-1.602,1.702-3.104,2.803-4.406c2.102-2.4,4.905-3.701,8.008-3.701
	c3.104,0,5.906,1.301,8.008,3.701c1.102,1.305,2.002,2.807,2.804,4.406c0.801,1.502,1.602,3.104,2.401,4.604l0.302,0.602
	c7.606,14.914,15.015,30.129,21.922,45.045v0.102c0.801,1.602,1.501,3.402,2.302,5.006c0.5,1.199,1.001,2.199,1.301,3.203
	C89.779,78.376,90.08,80.88,89.679,83.481z"/>
</svg>
