<?xml version="1.0" encoding="utf-8"?>
<!-- Generator: Adobe Illustrator 15.1.0, SVG Export Plug-In . SVG Version: 6.00 Build 0)  -->
<!DOCTYPE svg PUBLIC "-//W3C//DTD SVG 1.1//EN" "http://www.w3.org/Graphics/SVG/1.1/DTD/svg11.dtd">
<svg version="1.1" id="Capa_1" xmlns="http://www.w3.org/2000/svg" xmlns:xlink="http://www.w3.org/1999/xlink" x="0px" y="0px"
	 width="210px" height="60px" viewBox="0 0 210 60" enable-background="new 0 0 210 60" xml:space="preserve">
<g>
	<path fill="#EB5C63" d="M30.335,20.739c0,0.6,0,1.602,0,1.602s-3.104-4.006-9.709-4.006c-10.911,0-19.42,8.309-19.42,19.82
		c0,11.412,8.408,19.82,19.42,19.82c6.707,0,9.709-4.104,9.709-4.104v1.701c0,0.801,0.601,1.4,1.4,1.4h8.108V19.335
		c0,0-7.407,0-8.108,0C30.936,19.337,30.335,20.038,30.335,20.739z M30.335,44.862c-1.501,2.203-4.504,4.105-8.108,4.105
		c-6.407,0-11.312-4.004-11.312-10.813s4.904-10.813,11.312-10.813c3.503,0,6.707,2.002,8.108,4.105V44.862z"/>
	<path fill="#EB5C63" d="M189.395,18.335c-6.606,0-9.711,4.006-9.711,4.006V1.22h-9.609v55.756c0,0,7.408,0,8.109,0
		c0.801,0,1.4-0.701,1.4-1.402v-1.701c0,0,3.104,4.104,9.709,4.104c10.912,0,19.42-8.406,19.42-19.818
		S200.205,18.335,189.395,18.335z M187.793,48.866c-3.705,0-6.607-1.9-8.109-4.104V31.349c1.502-2.002,4.705-4.104,8.109-4.104
		c6.406,0,11.311,4.004,11.311,10.811S194.199,48.866,187.793,48.866z"/>
	<path fill="#EB5C63" d="M107.311,18.335c-6.604,0-9.709,4.006-9.709,4.006V1.22h-9.608v55.756c0,0,7.407,0,8.106,0
		c0.801,0,1.402-0.701,1.402-1.402v-1.701c0,0,3.104,4.104,9.709,4.104c10.912,0,19.42-8.406,19.42-19.818
		C126.73,26.745,118.223,18.335,107.311,18.335z M105.709,48.866c-3.703,0-6.605-1.9-8.107-4.104V31.349
		c1.502-2.002,4.705-4.104,8.107-4.104c6.408,0,11.313,4.004,11.313,10.811S112.117,48.866,105.709,48.866z"/>
	<path fill="#EB5C63" d="M160.365,21.94c-2.803-2.402-6.307-3.605-10.512-3.605c-3.703,0-7.406,1.102-10.209,4.006v-1.602
		c0-0.701-0.601-1.402-1.402-1.402h-7.606v37.639h9.609V30.749c1.902-2.203,4.906-3.705,7.809-3.705
		c5.404,0,7.406,2.504,7.406,8.709v21.322h9.61V34.653C165.07,28.347,163.768,24.743,160.365,21.94z"/>
	<path fill="#EB5C63" d="M50.653,1.12c-3.701,0-6.505,2.902-6.505,6.506s2.902,6.506,6.505,6.506c3.604,0,6.509-2.902,6.509-6.506
		C57.162,4.122,54.359,1.22,50.653,1.12z"/>
	<rect x="45.85" y="19.337" fill="#EB5C63" width="9.609" height="37.639"/>
	<path fill="#EB5C63" d="M70.974,22.341v-1.602c0-0.701-0.599-1.402-1.4-1.402c-0.7,0-8.108,0-8.108,0v37.738h9.611V30.749
		c5.004-5.707,13.012-3.004,13.012-3.004v-8.908c0,0-1.502-0.502-4.404-0.502C76.682,18.335,72.777,20.237,70.974,22.341z"/>
</g>
</svg>
