<?xml version="1.0" encoding="utf-8"?>
<!-- Generator: Adobe Illustrator 15.1.0, SVG Export Plug-In . SVG Version: 6.00 Build 0)  -->
<!DOCTYPE svg PUBLIC "-//W3C//DTD SVG 1.1//EN" "http://www.w3.org/Graphics/SVG/1.1/DTD/svg11.dtd">
<svg version="1.1" id="Layer_1" xmlns="http://www.w3.org/2000/svg" xmlns:xlink="http://www.w3.org/1999/xlink" x="0px" y="0px"
	 width="374px" height="145.333px" viewBox="310.5 421.167 374 145.333" enable-background="new 310.5 421.167 374 145.333"
	 xml:space="preserve">
<path fill="#FFF" d="M498.65,465.125c0,3.604-2.904,6.506-6.508,6.506c-3.603,0-6.505-2.902-6.505-6.506
	c0-3.603,2.803-6.505,6.505-6.505C495.848,458.719,498.65,461.622,498.65,465.125z M471.823,478.239c0,0.6,0,1.601,0,1.601
	s-3.103-4.005-9.709-4.005c-10.911,0-19.42,8.309-19.42,19.82c0,11.412,8.409,19.82,19.42,19.82c6.707,0,9.709-4.104,9.709-4.104
	v1.701c0,0.801,0.601,1.402,1.401,1.402h8.108v-37.639c0,0-7.407,0-8.108,0C472.424,476.837,471.823,477.538,471.823,478.239z
	 M471.823,502.362c-1.501,2.203-4.504,4.105-8.108,4.105c-6.407,0-11.312-4.004-11.312-10.813c0-6.807,4.905-10.811,11.312-10.811
	c3.503,0,6.707,2.002,8.108,4.104V502.362z M487.338,476.837h9.609v37.639h-9.609V476.837z M630.883,475.835
	c-6.607,0-9.711,4.005-9.711,4.005v-21.121h-9.609v55.756c0,0,7.408,0,8.109,0c0.801,0,1.4-0.701,1.4-1.402v-1.701l0,0
	c0,0,3.104,4.104,9.709,4.104c10.912,0,19.42-8.408,19.42-19.82C650.201,484.245,641.693,475.835,630.883,475.835z M629.281,506.366
	c-3.705,0-6.607-1.9-8.109-4.104v-13.414c1.502-2.002,4.705-4.104,8.109-4.104c6.406,0,11.311,4.004,11.311,10.811
	S635.688,506.366,629.281,506.366z M606.559,492.153v22.422h-9.611v-21.322c0-6.205-2.002-8.709-7.406-8.709
	c-2.902,0-5.906,1.502-7.809,3.705v26.227h-9.609v-37.639h7.607c0.801,0,1.402,0.701,1.402,1.402v1.601
	c2.803-2.904,6.506-4.005,10.209-4.005c4.205,0,7.709,1.203,10.512,3.605C605.256,482.242,606.559,485.847,606.559,492.153z
	 M548.799,475.835c-6.605,0-9.709,4.005-9.709,4.005v-21.121h-9.609v55.756c0,0,7.408,0,8.107,0c0.801,0,1.402-0.701,1.402-1.402
	v-1.701l0,0c0,0,3.104,4.104,9.709,4.104c10.912,0,19.42-8.408,19.42-19.82C568.219,484.245,559.711,475.835,548.799,475.835z
	 M547.197,506.366c-3.703,0-6.605-1.9-8.107-4.104v-13.414c1.502-2.002,4.705-4.104,8.107-4.104c6.408,0,11.313,4.004,11.313,10.811
	S553.605,506.366,547.197,506.366z M521.172,475.835c2.902,0,4.404,0.502,4.404,0.502v8.908c0,0-8.008-2.704-13.012,3.004v26.326
	h-9.611v-37.738c0,0,7.408,0,8.109,0c0.801,0,1.4,0.701,1.4,1.402v1.601C514.266,477.737,518.17,475.835,521.172,475.835z
	 M421.373,511.071c-0.5-1.201-1.001-2.502-1.501-3.604c-0.801-1.801-1.602-3.504-2.302-5.105l-0.1-0.1
	c-6.907-15.016-14.314-30.231-22.122-45.244l-0.3-0.602c-0.801-1.502-1.602-3.104-2.402-4.705c-1.001-1.803-2.002-3.703-3.604-5.506
	c-3.203-4.004-7.808-6.206-12.712-6.206c-5.005,0-9.509,2.202-12.813,6.006c-1.501,1.801-2.603,3.703-3.604,5.506
	c-0.801,1.602-1.602,3.203-2.402,4.705l-0.3,0.6c-7.708,15.015-15.215,30.23-22.122,45.246l-0.1,0.199
	c-0.701,1.602-1.502,3.303-2.303,5.105c-0.5,1.102-1.001,2.303-1.501,3.604c-1.301,3.703-1.702,7.207-1.201,10.811
	c1.101,7.508,6.106,13.814,13.013,16.617c2.603,1.102,5.305,1.602,8.108,1.602c0.801,0,1.802-0.1,2.603-0.201
	c3.303-0.4,6.707-1.5,10.01-3.402c4.104-2.303,8.008-5.605,12.413-10.41c4.404,4.805,8.408,8.107,12.412,10.41
	c3.304,1.902,6.707,3.002,10.01,3.402c0.801,0.102,1.802,0.201,2.603,0.201c2.803,0,5.605-0.5,8.108-1.602
	c7.007-2.803,11.912-9.209,13.013-16.617C423.074,518.278,422.674,514.776,421.373,511.071z M376.228,516.276
	c-5.405-6.807-8.909-13.213-10.11-18.617c-0.5-2.303-0.601-4.305-0.3-6.107c0.2-1.602,0.801-3.004,1.602-4.206
	c1.902-2.701,5.105-4.405,8.809-4.405s7.007,1.603,8.809,4.405c0.801,1.202,1.401,2.604,1.602,4.206c0.3,1.803,0.2,3.904-0.3,6.107
	C385.136,502.964,381.633,509.37,376.228,516.276z M416.167,520.981c-0.701,5.205-4.204,9.711-9.109,11.713
	c-2.402,1-5.005,1.301-7.607,1c-2.502-0.301-5.005-1.102-7.607-2.602c-3.604-2.004-7.208-5.105-11.412-9.711
	c6.606-8.107,10.61-15.516,12.112-22.121c0.701-3.104,0.801-5.906,0.5-8.51c-0.4-2.502-1.301-4.805-2.703-6.807
	c-3.104-4.504-8.309-7.107-14.114-7.107s-11.011,2.703-14.114,7.107c-1.401,2.002-2.302,4.305-2.703,6.807
	c-0.4,2.604-0.3,5.506,0.5,8.51c1.501,6.605,5.605,14.113,12.112,22.221c-4.104,4.605-7.808,7.709-11.412,9.711
	c-2.603,1.502-5.105,2.303-7.607,2.602c-2.703,0.301-5.306-0.1-7.608-1c-4.905-2.002-8.408-6.508-9.109-11.713
	c-0.3-2.502-0.1-5.004,0.901-7.807c0.3-1.002,0.801-2.002,1.301-3.203c0.701-1.602,1.501-3.305,2.302-5.006l0.1-0.199
	c6.907-14.916,14.314-30.131,22.022-44.945l0.3-0.602c0.801-1.5,1.602-3.101,2.403-4.603c0.801-1.602,1.702-3.104,2.803-4.406
	c2.102-2.402,4.905-3.703,8.008-3.703s5.906,1.301,8.008,3.703c1.101,1.303,2.002,2.805,2.803,4.406
	c0.801,1.502,1.602,3.103,2.402,4.603l0.301,0.602c7.607,14.914,15.015,30.129,21.922,45.045v0.1
	c0.801,1.602,1.501,3.404,2.302,5.006c0.5,1.201,1.001,2.201,1.301,3.203C416.268,515.876,416.568,518.38,416.167,520.981z"/>
</svg>
