<?xml version="1.0" encoding="utf-8"?>
<!-- Generator: Adobe Illustrator 15.1.0, SVG Export Plug-In . SVG Version: 6.00 Build 0)  -->
<!DOCTYPE svg PUBLIC "-//W3C//DTD SVG 1.1//EN" "http://www.w3.org/Graphics/SVG/1.1/DTD/svg11.dtd">
<svg version="1.1" id="Capa_1" xmlns="http://www.w3.org/2000/svg" xmlns:xlink="http://www.w3.org/1999/xlink" x="0px" y="0px"
	 width="320px" height="320px" viewBox="0 0 320 320" enable-background="new 0 0 320 320" xml:space="preserve">
<g>
	<path fill="#EB5E66" stroke="#FFFFFF" stroke-width="6" stroke-miterlimit="10" d="M160,8C76.474,8,8.44,75.697,8.44,159.56
		c0,83.864,68.032,151.56,151.56,151.56s151.56-67.696,151.56-151.56C311.56,75.697,243.526,8,160,8z"/>
</g>
<g>
	<path fill="#FFFFFF" d="M227.022,90.019c-4.716-4.715-10.777-7.073-17.177-7.073c-6.063,0-12.462,2.358-16.84,7.073l-29.302,29.302
		c-7.073,7.073-8.757,17.514-5.389,26.271c0,0.336,0,0.336,0,0.336l-17.515,17.514c-0.337,0-0.337,0-0.674,0
		c-3.031-1.348-6.063-1.684-9.094-1.684c-6.063,0-12.462,2.357-17.177,7.072l-28.966,28.965c-9.431,9.432-9.431,24.586,0,34.018
		l8.083,8.082c4.717,4.717,10.778,7.073,17.178,7.073c6.063,0,12.462-2.356,16.84-7.073l28.965-29.301
		c8.084-7.746,9.768-19.197,5.053-28.291l16.166-16.167c3.368,1.685,7.41,2.694,11.114,2.694c6.063,0,12.462-2.357,17.177-7.072
		l28.965-28.965c9.432-9.768,9.432-24.923,0.675-34.69L227.022,90.019z M151.58,205.879l-28.965,28.965
		c-3.368,3.367-7.746,5.051-12.125,5.051c-4.716,0-9.095-1.684-12.462-5.051l-8.083-7.746c-3.368-3.369-5.053-7.746-5.053-12.125
		s1.685-9.094,5.053-12.463l28.965-28.965c3.368-3.367,7.747-5.051,12.125-5.051c1.347,0,2.694,0,3.705,0.336
		c0.337,0,0.673,0,0.673,0l-7.409,7.41c-4.715,4.715-4.715,12.125,0,16.84l2.694,2.693c2.356,2.357,5.389,3.369,8.42,3.369
		s6.063-1.012,8.42-3.369l8.42-8.42C158.315,193.417,156.969,200.49,151.58,205.879z M176.503,157.379l-4.715,4.714l-14.482,14.82
		h-0.337l-4.715,4.715l-9.431,9.431c-1.012,1.01-2.357,1.685-3.705,1.685s-2.694-0.675-3.705-1.685l-2.694-2.693
		c-1.01-1.012-1.684-2.357-1.684-3.705s0.674-2.694,1.684-3.705l9.095-9.094l19.87-19.871l4.716-4.715l0.338-0.337l12.124-12.125
		c1.011-1.01,2.357-1.684,3.704-1.684c1.349,0,2.694,0.674,3.705,1.684l2.694,2.694c1.011,1.011,1.685,2.358,1.685,3.705
		c0,1.347-0.674,2.694-1.685,3.705L176.503,157.379z M229.718,128.078l-28.965,28.965c-3.368,3.368-7.746,5.051-12.125,5.051
		c-2.021,0-4.041-0.336-6.063-1.01c-0.338,0-0.338,0-0.338,0l0.338-0.337l11.113-11.114c4.717-4.715,4.717-12.461,0-17.177
		l-2.693-2.694c-2.357-2.358-5.39-3.368-8.42-3.368c-3.031,0-6.063,1.01-8.42,3.368l-10.44,10.441l-0.337,0.336
		c-1.348-5.726,0.337-11.451,4.715-15.83l28.965-28.965c3.368-3.368,7.746-5.052,12.125-5.052c4.715,0,9.094,1.684,12.462,5.052
		l8.083,8.083c3.368,3.368,5.053,7.746,5.053,12.125S233.086,125.046,229.718,128.078z"/>
</g>
</svg>
